<?xml version="1.0" encoding="UTF-8" standalone="no"?>
<!-- Generator: Gravit.io -->
<svg xmlns="http://www.w3.org/2000/svg" xmlns:xlink="http://www.w3.org/1999/xlink" style="isolation:isolate" viewBox="129.017 149 814.983 408" width="814.983pt" height="408pt"><defs><clipPath id="_clipPath_ZkqlTfz872SPbCSBJqlvmQpyBUpecXoi"><rect x="129.017" y="149" width="814.983" height="408"/></clipPath></defs><g clip-path="url(#_clipPath_ZkqlTfz872SPbCSBJqlvmQpyBUpecXoi)"><rect x="174.017" y="273.5" width="301.966" height="47.5" transform="matrix(1,0,0,1,0,0)" fill="rgb(43,39,38)"/><path d=" M 174.017 304.745 C 174.017 425.745 223.047 512 325 512 C 426.953 512 475.983 379.284 475.983 303.284" fill="rgb(43,39,38)" vector-effect="non-scaling-stroke" stroke-width="20" stroke="rgb(43,39,37)" stroke-linejoin="miter" stroke-linecap="square" stroke-miterlimit="3"/><path d=" M 174.017 284.5 C 174.017 252.5 202.962 232.668 226 210.5 Q 243.538 198.832 319.5 164 Q 363.359 211.413 392 235.5 C 420.641 259.587 475.983 259.5 475.983 284.5" fill="rgb(43,39,38)" vector-effect="non-scaling-stroke" stroke-width="20" stroke="rgb(43,39,38)" stroke-linejoin="round" stroke-linecap="square" stroke-miterlimit="3"/><line x1="404" y1="467" x2="404" y2="387" vector-effect="non-scaling-stroke" stroke-width="20" stroke="rgb(9,82,109)" stroke-linejoin="miter" stroke-linecap="round" stroke-miterlimit="3"/><rect x="275" y="347" width="57" height="26" transform="matrix(1,0,0,1,0,0)" fill="rgb(247,120,84)"/><rect x="276.5" y="321" width="38.5" height="18.5" transform="matrix(1,0,0,1,0,0)" fill="rgb(247,120,84)"/><rect x="341.657" y="365.621" width="33.457" height="29.5" transform="matrix(1,0,0,1,0,0)" fill="rgb(9,82,109)"/><path d="M 344.333 380.371 L 379.167 380.371 C 387.767 380.371 394.75 387.354 394.75 395.954 L 394.75 483.417 C 394.75 492.017 387.767 499 379.167 499 L 344.333 499 C 335.733 499 328.75 492.017 328.75 483.417 L 328.75 395.954 C 328.75 387.354 335.733 380.371 344.333 380.371 Z" style="stroke:none;fill:#09526D;stroke-miterlimit:10;"/><rect x="239.667" y="333" width="79.833" height="166" transform="matrix(1,0,0,1,0,0)" fill="rgb(247,120,84)"/><path d=" M 381 355 C 379.049 365.537 372.828 372.444 376 382 C 379.172 391.556 428.928 380.251 425 355 C 421.072 329.749 412.196 341.586 404 333" fill="rgb(247,120,84)" vector-effect="non-scaling-stroke" stroke-width="20" stroke="rgb(247,120,84)" stroke-linejoin="miter" stroke-linecap="round" stroke-miterlimit="3"/><circle vector-effect="non-scaling-stroke" cx="289.66666666666663" cy="269.00000000000006" r="50" fill="rgb(247,120,84)" stroke-width="20" stroke="rgb(247,120,84)" stroke-linejoin="miter" stroke-linecap="square" stroke-miterlimit="3"/><path d=" M 325 495 Q 325 400.376 325 392 C 325 383.624 331.21 358 358.5 358" fill="rgb(9,82,109)" vector-effect="non-scaling-stroke" stroke-width="20" stroke="rgb(9,82,109)" stroke-linejoin="miter" stroke-linecap="round" stroke-miterlimit="3"/><path d=" M 234 478 Q 234 391.314 234 358 C 234 332.238 271.848 319 285.498 319" fill="rgb(247,120,84)" vector-effect="non-scaling-stroke" stroke-width="20" stroke="rgb(247,120,84)" stroke-linejoin="miter" stroke-linecap="round" stroke-miterlimit="3"/><circle vector-effect="non-scaling-stroke" cx="361.74999999999994" cy="315.75" r="42.25" fill="rgb(9,82,109)" stroke-width="20" stroke="rgb(9,82,109)" stroke-linejoin="miter" stroke-linecap="square" stroke-miterlimit="3"/><path d=" M 174.017 304.745 C 174.017 425.745 223.047 512 325 512 C 426.953 512 475.983 379.284 475.983 303.284" fill="none" vector-effect="non-scaling-stroke" stroke-width="30" stroke="rgb(0,135,144)" stroke-linejoin="miter" stroke-linecap="square" stroke-miterlimit="3"/><path d=" M 174.017 296 C 174.017 227.135 242.693 183.701 325 164 Q 393.433 241.791 456.562 269 C 464.58 272.456 475.983 275.224 475.983 284.5" fill="none" vector-effect="non-scaling-stroke" stroke-width="30" stroke="rgb(0,135,144)" stroke-linejoin="round" stroke-linecap="round" stroke-miterlimit="3"/><text transform="matrix(1,0,0,1,532,490.4)" style="font-family:'Chango';font-weight:400;font-size:100px;font-style:normal;fill:#09526d;stroke:none;">Donut</text><clipPath id="_clipPath_a44yj4QXZPU2hc8oeqyDkfCgzLjTi44O"><text transform="matrix(1,0,0,1,532,490.4)" style="font-family:'Chango';font-weight:400;font-size:100px;font-style:normal;fill:#09526d;stroke:none;">Donut</text></clipPath><g clip-path="url(#_clipPath_a44yj4QXZPU2hc8oeqyDkfCgzLjTi44O)"><defs><radialGradient id="_rgradient_0" fx="50%" fy="50%" cx="50%" cy="50%" r="50%"><stop offset="0%" style="stop-color:#008790"/><stop offset="100%" style="stop-color:#00A2A2"/><stop offset="100%" style="stop-color:#000000"/></radialGradient><radialGradient id="_rgradient_1" fx="50%" fy="50%" cx="50%" cy="50%" r="50%"><stop offset="0%" style="stop-color:#008790"/><stop offset="100%" style="stop-color:#00A2A2"/><stop offset="100%" style="stop-color:#000000"/></radialGradient></defs><g style="mix-blend-mode:normal;" opacity="0.75"><path d="M 670.385 371.56 L 717.86 400.101 C 737.512 411.915 743.875 437.461 732.061 457.113 L 676.978 548.739 C 665.164 568.391 639.617 574.754 619.966 562.94 L 572.49 534.399 C 552.838 522.585 546.475 497.038 558.289 477.387 L 613.373 385.761 C 625.187 366.109 650.733 359.746 670.385 371.56 Z" style="stroke:none;fill:url(#_rgradient_1);stroke-miterlimit:10;mix-blend-mode:screen;"/></g><defs><linearGradient id="_lgradient_0" x1="0" y1="0.5" x2="1" y2="0.5"><stop offset="0%" style="stop-color:#008790"/><stop offset="95.21739130434783%" style="stop-color:#005F77"/><stop offset="100%" style="stop-color:#000000"/></linearGradient><linearGradient id="_lgradient_1" x1="0" y1="0.5" x2="1" y2="0.5"><stop offset="0%" style="stop-color:#008790"/><stop offset="95.21739130434783%" style="stop-color:#005F77"/><stop offset="100%" style="stop-color:#000000"/></linearGradient></defs><g style="mix-blend-mode:normal;" opacity="0.75"><path d="M 980.827 398.491 L 1044.334 436.67 C 1071.745 453.149 1080.621 488.782 1064.142 516.194 L 1025.963 579.701 C 1009.484 607.112 973.851 615.988 946.439 599.509 L 882.932 561.33 C 855.521 544.851 846.645 509.218 863.124 481.806 L 901.303 418.299 C 917.782 390.888 953.415 382.012 980.827 398.491 Z" style="stroke:none;fill:url(#_lgradient_1);stroke-miterlimit:10;mix-blend-mode:screen;"/></g></g></g></svg>