<svg id="Layer_2" data-name="Layer 2" xmlns="http://www.w3.org/2000/svg" viewBox="0 0 1301.54 398.26"><defs><style>.cls-1{fill:#00e0ac;}.cls-2,.cls-3{fill:#fff;}.cls-3{font-size:157.85px;font-family:MyriadPro-Regular, Myriad Pro;}.cls-4{letter-spacing:-0.01em;}.cls-5{letter-spacing:0.01em;}.cls-6{letter-spacing:0em;}</style></defs><title>gci logoGci Logo 1</title><path class="cls-1" d="M328.86,489.19l158.3,91.4A20.36,20.36,0,0,0,517.69,563V380.17a20.36,20.36,0,0,0-30.53-17.63l-158.3,91.4A20.35,20.35,0,0,0,328.86,489.19Z" transform="translate(-318.68 -359.78)"/><polygon class="cls-2" points="55.77 162.06 199.77 69.26 199.77 133.26 132.57 181.26 114.12 170.83 183.77 123.66 183.77 98.06 78.17 171.66 199.77 254.86 199.77 325.26 55.77 232.46 55.77 206.86 180.57 290.06 180.57 264.46 55.77 181.26 55.77 162.06"/><path class="cls-1" d="M755.52,628.64l-158.3-91.39a20.36,20.36,0,0,0-30.54,17.62V737.66a20.36,20.36,0,0,0,30.54,17.63l158.3-91.39A20.36,20.36,0,0,0,755.52,628.64Z" transform="translate(-318.68 -359.78)"/><polygon class="cls-2" points="392.24 237.2 248.24 330 248.24 266 315.44 218 333.89 228.43 264.24 275.6 264.24 301.2 369.84 227.6 248.24 144.4 248.24 74 392.24 166.8 392.24 192.4 267.44 109.2 267.44 134.8 392.24 218 392.24 237.2"/><text class="cls-3" transform="translate(522.25 164.49)"><tspan class="cls-4">C</tspan><tspan x="89.82" y="0">odeuino </tspan><tspan class="cls-4" x="0" y="189.42">C</tspan><tspan x="89.82" y="189.42">ommuni</tspan><tspan class="cls-5" x="651.28" y="189.42">t</tspan><tspan class="cls-6" x="704.95" y="189.42">y</tspan></text></svg>